<?xml version="1.0" encoding="utf-8"?>
<svg version="1.1" id="Layer_1"
xmlns="http://www.w3.org/2000/svg"
xmlns:xlink="http://www.w3.org/1999/xlink"
width="322px" height="221px"
xml:space="preserve">
<g id="PathID_13" transform="matrix(1.96442, 0, 0, 0.213642, 195.85, 16.05)" opacity="1">
<path style="fill:#3358DF;fill-opacity:1" d="M51.5 -51.5L51.5 51.5L-51.5 51.5L-51.5 -51.5L51.5 -51.5" />
</g>
<g id="PathID_14" transform="matrix(1.96442, 0, 0, 0.213642, 195.85, 16.05)" opacity="1">
</g>
<g id="PathID_15" transform="matrix(3.02542, 0, 0, 0.213642, 160.85, 113.4)" opacity="1">
<path style="fill:#3358DF;fill-opacity:1" d="M51.5 -51.5L51.5 51.5L-51.5 51.5L-51.5 -51.5L51.5 -51.5" />
</g>
<g id="PathID_16" transform="matrix(3.02542, 0, 0, 0.213642, 160.85, 113.4)" opacity="1">
</g>
<g id="PathID_17" transform="matrix(2.08434, 0, 0, 0.213642, 159.85, 204.1)" opacity="1">
<path style="fill:#3358DF;fill-opacity:1" d="M51.5 -51.5L51.5 51.5L-51.5 51.5L-51.5 -51.5L51.5 -51.5" />
</g>
<g id="PathID_18" transform="matrix(2.08434, 0, 0, 0.213642, 159.85, 204.1)" opacity="1">
</g>
</svg>
