<?xml version="1.0" encoding="utf-8"?>
<svg version="1.1" id="Layer_1"
xmlns="http://www.w3.org/2000/svg"
xmlns:xlink="http://www.w3.org/1999/xlink"
width="25px" height="25px"
xml:space="preserve">
<g id="PathID_19" transform="matrix(0.149901, 0, 0, 0.0163027, 15.35, 5.8)" opacity="1">
<path style="fill:#3358DF;fill-opacity:1" d="M51.5 -51.5L51.5 51.5L-51.5 51.5L-51.5 -51.5L51.5 -51.5" />
</g>
<g id="PathID_20" transform="matrix(0.149901, 0, 0, 0.0163027, 15.35, 5.8)" opacity="1">
</g>
<g id="PathID_21" transform="matrix(0.230864, 0, 0, 0.0163027, 12.7, 13.25)" opacity="1">
<path style="fill:#3358DF;fill-opacity:1" d="M51.5 -51.5L51.5 51.5L-51.5 51.5L-51.5 -51.5L51.5 -51.5" />
</g>
<g id="PathID_22" transform="matrix(0.230864, 0, 0, 0.0163027, 12.7, 13.25)" opacity="1">
</g>
<g id="PathID_23" transform="matrix(0.159053, 0, 0, 0.0163027, 12.6, 20.15)" opacity="1">
<path style="fill:#3358DF;fill-opacity:1" d="M51.5 -51.5L51.5 51.5L-51.5 51.5L-51.5 -51.5L51.5 -51.5" />
</g>
<g id="PathID_24" transform="matrix(0.159053, 0, 0, 0.0163027, 12.6, 20.15)" opacity="1">
</g>
</svg>
